<svg width="128" height="128" viewBox="0 0 128 128" xmlns="http://www.w3.org/2000/svg">
  <!-- Ghost body -->
  <path d="M64 16 C40 16 24 32 24 56 L24 96 C24 100 26 104 30 106 L34 112 L38 106 L42 112 L46 106 L50 112 L54 106 L58 112 L62 106 L66 112 L70 106 L74 112 L78 106 L82 112 L86 106 L90 112 L94 106 C98 104 104 100 104 96 L104 56 C104 32 88 16 64 16 Z" 
        fill="#f0f0f0" 
        stroke="#c8c8c8" 
        stroke-width="2"/>
  
  <!-- Eyes -->
  <circle cx="48" cy="48" r="6" fill="#3c3c3c"/>
  <circle cx="80" cy="48" r="6" fill="#3c3c3c"/>
  
  <!-- Mouth -->
  <circle cx="64" cy="64" r="4" fill="#3c3c3c"/>
  
  <!-- Highlight on eyes to make them look more lively -->
  <circle cx="50" cy="46" r="2" fill="#ffffff"/>
  <circle cx="82" cy="46" r="2" fill="#ffffff"/>
</svg> 